<svg width="28" height="28" viewBox="0 0 28 28" fill="none" xmlns="http://www.w3.org/2000/svg">
<path d="M3.87452 17.3643L8.41051 12.8283L12.1812 16.6003L16.3905 12.391L13.9998 10.0003H20.6665V16.667L18.2758 14.2763L12.1812 20.371L8.41051 16.6003L5.11052 19.899C6.6084 22.1535 8.90735 23.7542 11.5415 24.3768C14.1756 24.9994 16.948 24.5973 19.2967 23.2519C21.6454 21.9066 23.3948 19.7187 24.1904 17.1315C24.9861 14.5444 24.7684 11.7515 23.5815 9.3189C22.3946 6.88628 20.3274 4.99583 17.7986 4.03065C15.2698 3.06547 12.4686 3.09775 9.96276 4.12095C7.45689 5.14415 5.43372 7.08173 4.30322 9.54107C3.17273 12.0004 3.01948 14.7975 3.87452 17.3657V17.3643ZM1.82385 19.4417L1.81051 19.4283L1.81585 19.423C1.05575 17.7163 0.66412 15.8686 0.666515 14.0003C0.666515 6.63633 6.63585 0.666992 13.9998 0.666992C21.3638 0.666992 27.3332 6.63633 27.3332 14.0003C27.3332 21.3643 21.3638 27.3337 13.9998 27.3337C8.57318 27.3337 3.90651 24.0937 1.82385 19.4417Z" fill="white"/>
</svg>
