<svg width="20" height="20" viewBox="0 0 20 20" fill="none" xmlns="http://www.w3.org/2000/svg">
<path d="M8.5 14.9998H2V12.9998H8.5C9.13875 13 9.76525 13.175 10.3116 13.5059C10.858 13.8367 11.3035 14.3108 11.5997 14.8767C11.8959 15.4426 12.0316 16.0788 11.992 16.7163C11.9525 17.3539 11.7393 17.9684 11.3755 18.4934C11.0116 19.0184 10.5111 19.4338 9.92799 19.6947C9.34493 19.9555 8.7016 20.0518 8.06772 19.9731C7.43383 19.8945 6.83356 19.6438 6.33194 19.2484C5.83032 18.853 5.44647 18.3278 5.222 17.7298L7.095 17.0268C7.19118 17.2831 7.35566 17.5082 7.57063 17.6777C7.78559 17.8472 8.04285 17.9546 8.31451 17.9883C8.58618 18.0221 8.86189 17.9808 9.11179 17.8691C9.36169 17.7573 9.57623 17.5793 9.73218 17.3543C9.88813 17.1293 9.97954 16.8659 9.9965 16.5927C10.0135 16.3195 9.95532 16.0468 9.82839 15.8043C9.70145 15.5617 9.51057 15.3585 9.27641 15.2167C9.04225 15.0749 8.77375 14.9999 8.5 14.9998ZM3 8.99978H16.5C17.1387 9.00001 17.7653 9.17503 18.3116 9.50588C18.858 9.83673 19.3035 10.3108 19.5997 10.8767C19.8959 11.4426 20.0316 12.0788 19.992 12.7163C19.9525 13.3539 19.7393 13.9684 19.3755 14.4934C19.0116 15.0184 18.5111 15.4338 17.928 15.6947C17.3449 15.9555 16.7016 16.0518 16.0677 15.9731C15.4338 15.8945 14.8336 15.6438 14.3319 15.2484C13.8303 14.853 13.4465 14.3278 13.222 13.7298L15.095 13.0268C15.1912 13.2831 15.3557 13.5082 15.5706 13.6777C15.7856 13.8472 16.0428 13.9546 16.3145 13.9883C16.5862 14.0221 16.8619 13.9808 17.1118 13.8691C17.3617 13.7573 17.5762 13.5793 17.7322 13.3543C17.8881 13.1293 17.9795 12.8659 17.9965 12.5927C18.0135 12.3195 17.9553 12.0468 17.8284 11.8043C17.7015 11.5617 17.5106 11.3585 17.2764 11.2167C17.0423 11.0749 16.7738 10.9999 16.5 10.9998H3C2.20435 10.9998 1.44129 10.6837 0.87868 10.1211C0.316071 9.55849 0 8.79543 0 7.99978C0 7.20413 0.316071 6.44107 0.87868 5.87846C1.44129 5.31585 2.20435 4.99978 3 4.99978H11.5C11.7738 4.99967 12.0423 4.92464 12.2764 4.78283C12.5106 4.64102 12.7015 4.43784 12.8284 4.19529C12.9553 3.95274 13.0135 3.68009 12.9965 3.40686C12.9795 3.13364 12.8881 2.87026 12.7322 2.64527C12.5762 2.42028 12.3617 2.24226 12.1118 2.13049C11.8619 2.01873 11.5862 1.97748 11.3145 2.01122C11.0428 2.04496 10.7856 2.15239 10.5706 2.32189C10.3557 2.49139 10.1912 2.71648 10.095 2.97278L8.222 2.27078C8.51047 1.50359 9.05898 0.861922 9.77194 0.457592C10.4849 0.0532613 11.3171 -0.0881029 12.1236 0.0581307C12.9301 0.204364 13.6597 0.628925 14.1853 1.25784C14.711 1.88675 14.9993 2.68015 15 3.49978C15 4.42804 14.6313 5.31828 13.9749 5.97466C13.3185 6.63103 12.4283 6.99978 11.5 6.99978H3C2.73478 6.99978 2.48043 7.10514 2.29289 7.29268C2.10536 7.48021 2 7.73457 2 7.99978C2 8.265 2.10536 8.51935 2.29289 8.70689C2.48043 8.89442 2.73478 8.99978 3 8.99978Z" fill="white"/>
</svg>
