<svg width="26" height="28" viewBox="0 0 26 28" fill="none" xmlns="http://www.w3.org/2000/svg">
<path d="M1.45341 20.6664C0.889775 19.6917 0.451634 18.6497 0.149414 17.5651C0.807157 17.2306 1.35954 16.7206 1.74545 16.0916C2.13137 15.4626 2.33577 14.7392 2.33604 14.0012C2.33632 13.2633 2.13246 12.5397 1.74702 11.9104C1.36157 11.2812 0.809574 10.7708 0.152081 10.4358C0.754795 8.25641 1.90239 6.26637 3.48675 4.6531C4.10554 5.0554 4.82357 5.27865 5.56138 5.29814C6.2992 5.31763 7.02802 5.13261 7.66719 4.76354C8.30636 4.39447 8.83095 3.85576 9.18292 3.20702C9.53488 2.55827 9.70049 1.8248 9.66141 1.08776C11.8509 0.521927 14.1484 0.522845 16.3374 1.09043C16.2987 1.82745 16.4646 2.56082 16.8169 3.20937C17.1691 3.85793 17.6939 4.3964 18.3332 4.76518C18.9725 5.13396 19.7013 5.31868 20.4391 5.2989C21.1769 5.27912 21.8948 5.05561 22.5134 4.6531C23.2854 5.43976 23.9707 6.33443 24.5467 7.3331C25.1241 8.33176 25.5561 9.3731 25.8507 10.4344C25.193 10.769 24.6406 11.2789 24.2547 11.9079C23.8688 12.5369 23.6644 13.2604 23.6641 13.9983C23.6638 14.7362 23.8677 15.4598 24.2531 16.0891C24.6386 16.7184 25.1906 17.2287 25.8481 17.5638C25.2454 19.7431 24.0978 21.7332 22.5134 23.3464C21.8946 22.9441 21.1766 22.7209 20.4388 22.7014C19.701 22.6819 18.9721 22.8669 18.333 23.236C17.6938 23.6051 17.1692 24.1438 16.8172 24.7925C16.4653 25.4413 16.2997 26.1747 16.3387 26.9118C14.1493 27.4776 11.8518 27.4767 9.66275 26.9091C9.70148 26.1721 9.53554 25.4387 9.18331 24.7902C8.83107 24.1416 8.30627 23.6031 7.66698 23.2344C7.02768 22.8656 6.29882 22.6808 5.56105 22.7006C4.82328 22.7204 4.10536 22.9439 3.48675 23.3464C2.69873 22.5424 2.01554 21.6419 1.45341 20.6664ZM9.00008 20.9278C10.4209 21.7473 11.4892 23.0625 12.0001 24.6211C12.6654 24.6838 13.3334 24.6851 13.9987 24.6224C14.5099 23.0636 15.5787 21.7484 17.0001 20.9291C18.4204 20.1073 20.0941 19.8391 21.7001 20.1758C22.0867 19.6318 22.4201 19.0518 22.6974 18.4451C21.6033 17.223 20.9989 15.64 21.0001 13.9998C21.0001 12.3198 21.6267 10.7504 22.6974 9.55443C22.4181 8.94796 22.0834 8.36861 21.6974 7.82376C20.0925 8.16018 18.4198 7.8924 17.0001 7.07176C15.5792 6.25226 14.511 4.93707 14.0001 3.37843C13.3347 3.31576 12.6667 3.31443 12.0014 3.3771C11.4902 4.93596 10.4214 6.25118 9.00008 7.07043C7.57979 7.89218 5.90605 8.16046 4.30008 7.82376C3.91417 8.36814 3.58026 8.94758 3.30275 9.55443C4.39684 10.7765 5.00126 12.3595 5.00008 13.9998C5.00008 15.6798 4.37341 17.2491 3.30275 18.4451C3.58204 19.0516 3.9168 19.6309 4.30275 20.1758C5.9077 19.8394 7.58036 20.1071 9.00008 20.9278ZM13.0001 17.9998C11.9392 17.9998 10.9218 17.5783 10.1717 16.8282C9.42151 16.078 9.00008 15.0606 9.00008 13.9998C9.00008 12.9389 9.42151 11.9215 10.1717 11.1713C10.9218 10.4212 11.9392 9.99976 13.0001 9.99976C14.0609 9.99976 15.0784 10.4212 15.8285 11.1713C16.5787 11.9215 17.0001 12.9389 17.0001 13.9998C17.0001 15.0606 16.5787 16.078 15.8285 16.8282C15.0784 17.5783 14.0609 17.9998 13.0001 17.9998ZM13.0001 15.3331C13.3537 15.3331 13.6928 15.1926 13.9429 14.9426C14.1929 14.6925 14.3334 14.3534 14.3334 13.9998C14.3334 13.6461 14.1929 13.307 13.9429 13.057C13.6928 12.8069 13.3537 12.6664 13.0001 12.6664C12.6465 12.6664 12.3073 12.8069 12.0573 13.057C11.8072 13.307 11.6667 13.6461 11.6667 13.9998C11.6667 14.3534 11.8072 14.6925 12.0573 14.9426C12.3073 15.1926 12.6465 15.3331 13.0001 15.3331Z" fill="#6A6A9F"/>
</svg>
