<svg width="28" height="28" viewBox="0 0 28 28" fill="none" xmlns="http://www.w3.org/2000/svg">
<path d="M6.2265 21.9997C6.50197 21.219 7.01282 20.5429 7.68864 20.0647C8.36445 19.5865 9.17195 19.3298 9.99984 19.3298C10.8277 19.3298 11.6352 19.5865 12.311 20.0647C12.9869 20.5429 13.4977 21.219 13.7732 21.9997H27.3332V24.6664H13.7732C13.4977 25.4471 12.9869 26.1231 12.311 26.6013C11.6352 27.0795 10.8277 27.3363 9.99984 27.3363C9.17195 27.3363 8.36445 27.0795 7.68864 26.6013C7.01282 26.1231 6.50197 25.4471 6.2265 24.6664H0.666504V21.9997H6.2265ZM14.2265 12.6664C14.502 11.8856 15.0128 11.2096 15.6886 10.7314C16.3645 10.2532 17.172 9.99642 17.9998 9.99642C18.8277 9.99642 19.6352 10.2532 20.311 10.7314C20.9869 11.2096 21.4977 11.8856 21.7732 12.6664H27.3332V15.333H21.7732C21.4977 16.1137 20.9869 16.7898 20.311 17.268C19.6352 17.7462 18.8277 18.003 17.9998 18.003C17.172 18.003 16.3645 17.7462 15.6886 17.268C15.0128 16.7898 14.502 16.1137 14.2265 15.333H0.666504V12.6664H14.2265ZM6.2265 3.33302C6.50197 2.55231 7.01282 1.87627 7.68864 1.39807C8.36445 0.91988 9.17195 0.663086 9.99984 0.663086C10.8277 0.663086 11.6352 0.91988 12.311 1.39807C12.9869 1.87627 13.4977 2.55231 13.7732 3.33302H27.3332V5.99969H13.7732C13.4977 6.7804 12.9869 7.45644 12.311 7.93463C11.6352 8.41283 10.8277 8.66962 9.99984 8.66962C9.17195 8.66962 8.36445 8.41283 7.68864 7.93463C7.01282 7.45644 6.50197 6.7804 6.2265 5.99969H0.666504V3.33302H6.2265ZM9.99984 5.99969C10.3535 5.99969 10.6926 5.85921 10.9426 5.60916C11.1927 5.35911 11.3332 5.01998 11.3332 4.66635C11.3332 4.31273 11.1927 3.97359 10.9426 3.72354C10.6926 3.4735 10.3535 3.33302 9.99984 3.33302C9.64622 3.33302 9.30708 3.4735 9.05703 3.72354C8.80698 3.97359 8.6665 4.31273 8.6665 4.66635C8.6665 5.01998 8.80698 5.35911 9.05703 5.60916C9.30708 5.85921 9.64622 5.99969 9.99984 5.99969ZM17.9998 15.333C18.3535 15.333 18.6926 15.1925 18.9426 14.9425C19.1927 14.6924 19.3332 14.3533 19.3332 13.9997C19.3332 13.6461 19.1927 13.3069 18.9426 13.0569C18.6926 12.8068 18.3535 12.6664 17.9998 12.6664C17.6462 12.6664 17.3071 12.8068 17.057 13.0569C16.807 13.3069 16.6665 13.6461 16.6665 13.9997C16.6665 14.3533 16.807 14.6924 17.057 14.9425C17.3071 15.1925 17.6462 15.333 17.9998 15.333ZM9.99984 24.6664C10.3535 24.6664 10.6926 24.5259 10.9426 24.2758C11.1927 24.0258 11.3332 23.6866 11.3332 23.333C11.3332 22.9794 11.1927 22.6403 10.9426 22.3902C10.6926 22.1402 10.3535 21.9997 9.99984 21.9997C9.64622 21.9997 9.30708 22.1402 9.05703 22.3902C8.80698 22.6403 8.6665 22.9794 8.6665 23.333C8.6665 23.6866 8.80698 24.0258 9.05703 24.2758C9.30708 24.5259 9.64622 24.6664 9.99984 24.6664Z" fill="#6A6A9F"/>
</svg>
