<svg width="28" height="27" viewBox="0 0 28 27" fill="none" xmlns="http://www.w3.org/2000/svg">
<path d="M6.31317 5.93733C4.61323 7.70172 3.5725 9.99754 3.36593 12.4389C3.15936 14.8802 3.79953 17.3183 5.17885 19.3432C6.55816 21.3682 8.59252 22.8565 10.94 23.5582C13.2874 24.2598 15.8049 24.1319 18.0692 23.196C18.2225 22.196 17.8865 21.236 17.7492 20.9C17.4425 20.1533 16.4318 18.8773 14.7452 17.108C14.2945 16.6347 14.3238 16.2707 14.4852 15.192L14.5025 15.0707C14.6118 14.332 14.7958 13.8947 17.2825 13.5C18.5465 13.3 18.8785 13.804 19.3385 14.504L19.4932 14.7333C19.9305 15.3733 20.2545 15.52 20.7438 15.7413C20.9638 15.8413 21.2372 15.968 21.6038 16.1747C22.4732 16.672 22.4732 17.2333 22.4732 18.4627V18.6027C22.4732 19.124 22.4225 19.5827 22.3425 19.9813C23.3657 18.6972 24.0786 17.1943 24.426 15.5896C24.7733 13.9849 24.7455 12.3216 24.3449 10.7294C23.9443 9.13712 23.1816 7.65881 22.1162 6.40952C21.0509 5.16023 19.7115 4.17368 18.2025 3.52667C17.4652 4.024 16.4532 4.72933 16.0998 5.21333C15.9198 5.46 15.6638 6.72267 14.8332 6.82667C14.6172 6.85333 14.3252 6.83467 14.0158 6.81467C13.1865 6.76133 12.0532 6.688 11.6905 7.67333C11.4598 8.29733 11.4198 9.99333 12.1652 10.8733C12.2852 11.0133 12.3078 11.2733 12.2265 11.5653C12.1198 11.948 11.9052 12.1813 11.8372 12.2293C11.7092 12.1547 11.4532 11.8573 11.2785 11.656C10.8612 11.1693 10.3385 10.5627 9.66384 10.376C9.4185 10.308 9.14917 10.252 8.8865 10.196C8.1545 10.0427 7.3265 9.868 7.13317 9.45733C6.99184 9.156 6.99317 8.74133 6.99317 8.304C6.99317 7.748 6.99317 7.12 6.72117 6.51067C6.62661 6.29321 6.48764 6.09792 6.31317 5.93733ZM13.9998 26.6667C6.63584 26.6667 0.666504 20.6973 0.666504 13.3333C0.666504 5.96933 6.63584 0 13.9998 0C21.3638 0 27.3332 5.96933 27.3332 13.3333C27.3332 20.6973 21.3638 26.6667 13.9998 26.6667Z" fill="#991BFA"/>
</svg>
